<svg width="30" height="30" viewBox="0 0 30 30" fill="none" xmlns="http://www.w3.org/2000/svg">
<g clip-path="url(#clip0_150_2852)">
<path d="M30 22.387C30 22.5514 29.9949 22.9058 29.9846 23.1832C29.9589 23.8562 29.9075 24.7243 29.8253 25.1199C29.7021 25.7158 29.5223 26.2757 29.2808 26.7432C28.9983 27.2979 28.6387 27.7911 28.2072 28.2175C27.7808 28.6438 27.2877 29.0034 26.7329 29.286C26.2654 29.5274 25.7003 29.7072 25.0993 29.8305C24.7089 29.9075 23.8459 29.964 23.1781 29.9846C22.9007 29.9949 22.5462 30 22.3819 30H7.60788C7.44349 30 7.08904 29.9949 6.81164 29.9846C6.1387 29.9589 5.27055 29.9075 4.875 29.8253C4.27911 29.7021 3.71918 29.5223 3.25171 29.2808C2.69692 28.9983 2.20377 28.6387 1.7774 28.2072C1.35103 27.7808 0.991438 27.2877 0.708904 26.7329C0.467466 26.2654 0.287671 25.7003 0.164384 25.0993C0.0873288 24.7089 0.0308219 23.8459 0.010274 23.1781C0.00513699 22.9058 0 22.5514 0 22.387V7.61301C0 7.44863 0.00513699 7.09418 0.015411 6.81678C0.0410959 6.14384 0.0924658 5.27568 0.174658 4.88014C0.297945 4.28425 0.47774 3.72432 0.719178 3.25685C1.00171 2.70205 1.3613 2.2089 1.78767 1.78253C2.21404 1.35616 2.70719 0.996575 3.26199 0.714041C3.72945 0.472603 4.29452 0.292808 4.89555 0.169521C5.28596 0.0924658 6.14897 0.0359589 6.81678 0.015411C7.09418 0.00513699 7.44863 0 7.61301 0H22.387C22.5514 0 22.9058 0.00513699 23.1832 0.015411C23.8562 0.0410959 24.7243 0.0924658 25.1199 0.174658C25.7158 0.297945 26.2757 0.47774 26.7432 0.719178C27.2979 1.00171 27.7911 1.3613 28.2175 1.79281C28.6438 2.21918 29.0034 2.71233 29.286 3.26712C29.5274 3.73459 29.7072 4.29966 29.8305 4.90069C29.9075 5.2911 29.964 6.15411 29.9846 6.82192C29.9949 7.09932 30 7.45377 30 7.61815V22.387Z" fill="url(#paint0_linear_150_2852)"/>
<path fill-rule="evenodd" clip-rule="evenodd" d="M22.8908 7.18154C20.872 5.1627 18.1853 4.04797 15.324 4.04797C9.42678 4.04797 4.63397 8.84592 4.62883 14.738C4.62883 16.6233 5.12198 18.4624 6.05691 20.0805L4.5415 25.6233L10.2127 24.1387C11.7744 24.9915 13.5312 25.4384 15.324 25.4384H15.3292C21.2213 25.4384 26.0192 20.6404 26.0244 14.7483C26.0244 11.887 24.9097 9.20037 22.8908 7.18154ZM15.3292 23.6302C13.7316 23.6302 12.1648 23.1987 10.8035 22.3921L10.4799 22.2021L7.11513 23.0856L8.01411 19.8082L7.80349 19.4743C6.91479 18.0617 6.44219 16.423 6.44219 14.7432C6.44219 9.84249 10.4336 5.85619 15.3343 5.85619C17.7076 5.85619 19.9422 6.78085 21.6168 8.46064C23.2966 10.1404 24.2213 12.375 24.2162 14.7483C24.211 19.6439 20.2247 23.6302 15.3292 23.6302ZM20.2042 16.9778C19.9371 16.8442 18.622 16.1969 18.3805 16.1096C18.134 16.0223 17.9593 15.9761 17.7795 16.2432C17.5997 16.5103 17.0912 17.1113 16.9319 17.2911C16.7778 17.4709 16.6186 17.4915 16.3514 17.3579C16.0843 17.2243 15.2213 16.9418 14.2042 16.0326C13.4079 15.3237 12.8737 14.4504 12.7196 14.1832C12.5655 13.9161 12.7042 13.7723 12.8377 13.6387C12.9559 13.5206 13.1049 13.3254 13.2384 13.1713C13.372 13.0171 13.4182 12.9041 13.5055 12.7243C13.5929 12.5445 13.5518 12.3904 13.485 12.2569C13.4182 12.1233 12.884 10.8082 12.6631 10.274C12.4473 9.75516 12.2264 9.82195 12.0621 9.81681C11.9079 9.80653 11.7281 9.80653 11.5484 9.80653C11.3686 9.80653 11.0809 9.87331 10.8343 10.1404C10.5877 10.4076 9.89938 11.0548 9.89938 12.3699C9.89938 13.685 10.8549 14.9538 10.9884 15.1336C11.122 15.3134 12.8737 18.0103 15.5552 19.1661C16.1922 19.4435 16.6905 19.6079 17.0809 19.7312C17.723 19.9367 18.3035 19.9058 18.7658 19.8391C19.2795 19.762 20.348 19.1918 20.5689 18.5702C20.7898 17.9487 20.7898 17.4093 20.723 17.3014C20.646 17.1781 20.4713 17.1113 20.2042 16.9778Z" fill="white"/>
</g>
<defs>
<linearGradient id="paint0_linear_150_2852" x1="15.0011" y1="30.0023" x2="15.0011" y2="0" gradientUnits="userSpaceOnUse">
<stop stop-color="#25CF43"/>
<stop offset="1" stop-color="#61FD7D"/>
</linearGradient>
<clipPath id="clip0_150_2852">
<rect width="30" height="30" fill="white"/>
</clipPath>
</defs>
</svg>
