<?xml version="1.0" encoding="UTF-8"?>
<svg version="1.1" xmlns="http://www.w3.org/2000/svg" width="512" height="512">
<path d="M0 0 C0.85183483 -0.0072672 1.70366966 -0.01453441 2.58131766 -0.02202183 C5.44942188 -0.04033911 8.31620012 -0.02288532 11.18429565 -0.00571251 C13.25570423 -0.01147103 15.3271077 -0.01941033 17.39850044 -0.02934873 C23.10127895 -0.05028209 28.80364079 -0.03987726 34.50642109 -0.02441764 C40.65239137 -0.01313464 46.7982885 -0.03055168 52.94424438 -0.04431725 C64.29180969 -0.06529882 75.63920457 -0.06343387 86.98676568 -0.0497599 C97.46914755 -0.03719025 107.95148055 -0.03389481 118.43386841 -0.03987312 C119.47618355 -0.04044601 119.47618355 -0.04044601 120.53955556 -0.04103047 C123.36017036 -0.04258712 126.18078514 -0.04417912 129.00139988 -0.04582929 C155.46982959 -0.06112996 181.93817437 -0.04724803 208.40659097 -0.02034481 C231.93068256 0.00338388 255.45463884 0.00126077 278.97872925 -0.02264977 C305.39823166 -0.04941341 331.817659 -0.06004492 358.23717308 -0.04458845 C361.05269748 -0.04298482 363.8682219 -0.04142062 366.68374634 -0.03987312 C367.72365422 -0.03928004 367.72365422 -0.03928004 368.78457035 -0.03867498 C379.26127751 -0.03298367 389.73793047 -0.03964632 400.21463013 -0.05227089 C412.125176 -0.06655156 424.03556201 -0.06254412 435.94610167 -0.03586717 C442.02669824 -0.02269827 448.10701971 -0.01762909 454.18761444 -0.03411293 C459.74900746 -0.0489616 465.30986917 -0.04090813 470.87121367 -0.01422517 C472.88795816 -0.00861862 474.90474712 -0.01152896 476.92146325 -0.02360411 C479.65416015 -0.0387169 482.38501551 -0.02331245 485.11761475 0 C485.90843185 -0.01170583 486.69924896 -0.02341166 487.51403022 -0.03547221 C491.40554 0.03129993 493.3749946 0.49489197 496.54705656 2.8127476 C498.82305113 5.99914787 499.18482637 7.45220206 499.18801308 11.3217411 C499.20105181 12.46419981 499.21409055 13.60665852 499.2275244 14.78373718 C499.21637079 16.03421152 499.20521718 17.28468586 499.19372559 18.57305336 C499.19948736 19.91850082 499.20742887 21.26394042 499.21736181 22.60936356 C499.23825142 26.30554088 499.22791092 30.00107346 499.21243072 33.69725323 C499.20112956 37.68370959 499.21857373 41.67005417 499.23233032 45.65648842 C499.25458057 53.46548472 499.24975365 61.27424094 499.23526712 69.08324671 C499.22398188 75.42892905 499.22244087 81.77454404 499.2278862 88.12023354 C499.22903545 89.47420359 499.22903545 89.47420359 499.23020791 90.85552657 C499.23180652 92.68915226 499.23342758 94.52277793 499.23507087 96.35640359 C499.2493336 113.55625194 499.23292744 130.75596711 499.20606904 147.95579362 C499.18372977 162.71874248 499.18760976 177.48149477 499.21066284 192.24444008 C499.2374116 209.38211683 499.24796026 226.51967681 499.23260152 243.65737152 C499.23100875 245.48430695 499.2294369 247.3112424 499.2278862 249.13817787 C499.22672913 250.48656004 499.22672913 250.48656004 499.22554869 251.86218226 C499.22122891 258.20132028 499.22852422 264.54038432 499.24028397 270.87951088 C499.25429726 278.60330726 499.25053381 286.32684953 499.22388025 294.05061674 C499.21072611 297.99258188 499.20561643 301.93412314 499.22212601 305.87608528 C499.23700626 309.48353573 499.22887064 313.09016872 499.20223825 316.69754481 C499.19399154 318.62325541 499.21034855 320.54902257 499.2275244 322.47467422 C499.21448566 323.61713293 499.20144693 324.75959164 499.18801308 325.9366703 C499.18679543 327.41522279 499.18679543 327.41522279 499.18555319 328.92364502 C498.27752801 332.8434434 496.79067949 334.26764623 493.55880737 336.6292057 C490.55364084 337.12045175 488.11823893 337.30282724 485.11761475 337.25841141 C483.8398625 337.26931221 483.8398625 337.26931221 482.53629708 337.28043324 C479.66819286 337.29875052 476.80141462 337.28129672 473.93331909 337.26412392 C471.86191052 337.26988244 469.79050704 337.27782174 467.7191143 337.28776014 C462.0163358 337.3086935 456.31397395 337.29828867 450.61119366 337.28282905 C444.46522338 337.27154604 438.31932625 337.28896308 432.17337036 337.30272865 C420.82580505 337.32371023 409.47841018 337.32184528 398.13084906 337.30817131 C387.64846719 337.29560166 377.1661342 337.29230622 366.68374634 337.29828453 C365.6414312 337.29885742 365.6414312 337.29885742 364.57805918 337.29944188 C361.75744438 337.30099853 358.93682961 337.30259053 356.11621486 337.3042407 C329.64778516 337.31954137 303.17944038 337.30565944 276.71102378 337.27875621 C253.18693218 337.25502753 229.66297591 337.25715064 206.1388855 337.28106117 C179.71938309 337.30782481 153.29995575 337.31845633 126.88044167 337.30299985 C124.06491726 337.30139623 121.24939284 337.29983203 118.43386841 337.29828453 C117.39396052 337.29769145 117.39396052 337.29769145 116.33304439 337.29708639 C105.85633724 337.29139508 95.37968428 337.29805773 84.90298462 337.3106823 C72.99243875 337.32496297 61.08205273 337.32095553 49.17151308 337.29427858 C43.0909165 337.28110968 37.01059504 337.2760405 30.93000031 337.29252434 C25.36860728 337.30737301 19.80774557 337.29931953 14.24640107 337.27263658 C12.22965658 337.26703002 10.21286763 337.26994037 8.19615149 337.28201552 C5.4634546 337.29712831 2.73259924 337.28172386 0 337.25841141 C-0.79081711 337.27011724 -1.58163421 337.28182307 -2.39641547 337.29388362 C-6.28792525 337.22711148 -8.25737985 336.76351943 -11.42944181 334.44566381 C-13.70543638 331.25926354 -14.06721162 329.80620935 -14.07039833 325.9366703 C-14.08343707 324.7942116 -14.0964758 323.65175289 -14.10990965 322.47467422 C-14.09875605 321.22419989 -14.08760244 319.97372555 -14.07611084 318.68535805 C-14.08187262 317.33991058 -14.08981413 315.99447099 -14.09974706 314.64904785 C-14.12063668 310.95287053 -14.11029617 307.25733795 -14.09481597 303.56115818 C-14.08351482 299.57470181 -14.10095899 295.58835723 -14.11471558 291.60192299 C-14.13696582 283.79292669 -14.1321389 275.98417047 -14.11765237 268.1751647 C-14.10636713 261.82948236 -14.10482613 255.48386737 -14.11027145 249.13817787 C-14.11103762 248.23553117 -14.11180378 247.33288447 -14.11259317 246.40288484 C-14.11419177 244.56925915 -14.11581284 242.73563347 -14.11745612 240.90200782 C-14.13171886 223.70215947 -14.11531269 206.5024443 -14.08845429 189.30261779 C-14.06611503 174.53966893 -14.06999501 159.77691664 -14.0930481 145.01397133 C-14.11979686 127.87629458 -14.13034551 110.73873459 -14.11498678 93.60103989 C-14.11339401 91.77410445 -14.11182215 89.947169 -14.11027145 88.12023354 C-14.10950008 87.22131209 -14.1087287 86.32239064 -14.10793395 85.39622915 C-14.10361417 79.05709113 -14.11090947 72.71802709 -14.12266922 66.37890053 C-14.13668251 58.65510415 -14.13291907 50.93156188 -14.1062655 43.20779467 C-14.09311137 39.26582952 -14.08800168 35.32428827 -14.10451126 31.38232613 C-14.11939151 27.77487568 -14.11125589 24.16824269 -14.0846235 20.56086659 C-14.07637679 18.635156 -14.0927338 16.70938883 -14.10990965 14.78373718 C-14.09687092 13.64127848 -14.08383218 12.49881977 -14.07039833 11.3217411 C-14.06958657 10.33603945 -14.06877481 9.35033779 -14.06793845 8.33476639 C-12.326103 0.81554354 -6.79442971 -0.10057249 0 0 Z " fill="#F4F4F4" transform="translate(13.441192626953125,87.37079429626465)"/>
<path d="M0 0 C168.96 0 337.92 0 512 0 C512 35.31 512 70.62 512 107 C506.42924768 112.57075232 506.42924768 112.57075232 500.95522285 112.66467792 C500.16440574 112.65297209 499.37358863 112.64126626 498.55880737 112.6292057 C497.70697254 112.63647291 496.85513772 112.64374011 495.97748971 112.65122753 C493.10938549 112.66954482 490.24260725 112.65209102 487.37451172 112.63491821 C485.30310314 112.64067673 483.23169967 112.64861603 481.16030693 112.65855443 C475.45752842 112.6794878 469.75516658 112.66908297 464.05238628 112.65362334 C457.906416 112.64234034 451.76051888 112.65975738 445.61456299 112.67352295 C434.26699768 112.69450452 422.91960281 112.69263958 411.57204169 112.67896561 C401.08965982 112.66639595 390.60732682 112.66310051 380.12493896 112.66907883 C379.08262382 112.66965172 379.08262382 112.66965172 378.01925181 112.67023618 C375.19863701 112.67179283 372.37802224 112.67338482 369.55740749 112.675035 C343.08897778 112.69033567 316.62063301 112.67645374 290.1522164 112.64955051 C266.62812481 112.62582183 243.10416854 112.62794494 219.58007812 112.65185547 C193.16057572 112.67861911 166.74114837 112.68925062 140.32163429 112.67379415 C137.50610989 112.67219052 134.69058547 112.67062633 131.87506104 112.66907883 C130.83515315 112.66848575 130.83515315 112.66848575 129.77423702 112.66788069 C119.29752986 112.66218937 108.8208769 112.66885202 98.34417725 112.68147659 C86.43363137 112.69575726 74.52324536 112.69174982 62.61270571 112.66507287 C56.53210913 112.65190397 50.45178767 112.6468348 44.37119293 112.66331863 C38.80979991 112.6781673 33.2489382 112.67011383 27.6875937 112.64343087 C25.67084921 112.63782432 23.65406025 112.64073467 21.63734412 112.65280981 C18.90464723 112.6679226 16.17379187 112.65251815 13.44119263 112.6292057 C12.65037552 112.64091153 11.85955842 112.65261737 11.04477715 112.66467792 C4.98713783 112.56073842 4.75789365 111.75789365 0 107 C0 71.69 0 36.38 0 0 Z " fill="#73AF00" transform="translate(0,312)"/>
<path d="M0 0 C1.18622566 0.01755875 1.18622566 0.01755875 2.39641547 0.03547221 C3.2482503 0.02820501 4.10008513 0.02093781 4.97773314 0.01345038 C7.84583736 -0.0048669 10.7126156 0.0125869 13.58071113 0.02975971 C15.6521197 0.02400118 17.72352318 0.01606189 19.79491591 0.00612348 C25.49769442 -0.01480988 31.20005627 -0.00440505 36.90283656 0.01105458 C43.04880684 0.02233758 49.19470397 0.00492054 55.34065986 -0.00884503 C66.68822517 -0.02982661 78.03562004 -0.02796166 89.38318115 -0.01428769 C99.86556303 -0.00171803 110.34789602 0.00157741 120.83028388 -0.00440091 C121.87259902 -0.0049738 121.87259902 -0.0049738 122.93597104 -0.00555826 C125.75658583 -0.00711491 128.57720061 -0.00870691 131.39781535 -0.01035708 C157.86624506 -0.02565775 184.33458984 -0.01177582 210.80300644 0.01512741 C234.32709803 0.03885609 257.85105431 0.03673298 281.37514472 0.01282245 C307.79464713 -0.01394119 334.21407447 -0.0245727 360.63358855 -0.00911623 C363.44911295 -0.00751261 366.26463738 -0.00594841 369.08016181 -0.00440091 C370.1200697 -0.00380783 370.1200697 -0.00380783 371.18098582 -0.00320277 C381.65769298 0.00248855 392.13434594 -0.00417411 402.6110456 -0.01679868 C414.52159147 -0.03107935 426.43197748 -0.02707191 438.34251714 -0.00039496 C444.42311371 0.01277395 450.50343518 0.01784312 456.58402991 0.00135928 C462.14542294 -0.01348939 467.70628464 -0.00543591 473.26762915 0.02124704 C475.28437364 0.0268536 477.30116259 0.02394325 479.31787872 0.0118681 C482.05057562 -0.00324469 484.78143098 0.01215977 487.51403022 0.03547221 C488.30484732 0.02376638 489.09566443 0.01206055 489.91044569 0 C495.96808502 0.10393949 496.1973292 0.90678427 500.95522285 5.66467792 C500.95522285 40.97467792 500.95522285 76.28467792 500.95522285 112.66467792 C331.99522285 112.66467792 163.03522285 112.66467792 -11.04477715 112.66467792 C-11.04477715 0.18951088 -11.04477715 0.18951088 0 0 Z " fill="#FAB446" transform="translate(11.044777154922485,87.3353220820427)"/>
<path d="M0 0 C4.35054182 2.74659002 8.06573071 5.7366626 11.51953125 9.57421875 C12.34453125 10.46109375 13.16953125 11.34796875 14.01953125 12.26171875 C23.51613984 23.85537024 24.7148294 37.20673494 23.51953125 51.57421875 C20.9791926 64.27591202 12.4706267 73.8123643 2.51953125 81.57421875 C-5.63240758 86.80376441 -13.53724656 89.1478525 -23.23046875 89.07421875 C-24.53709473 89.06672607 -24.53709473 89.06672607 -25.87011719 89.05908203 C-38.61154741 88.71758344 -48.02375034 83.59070636 -57.23046875 75.01171875 C-66.24402663 65.24703105 -71.08190199 55.17699387 -70.98046875 41.82421875 C-70.97547363 40.95313477 -70.97047852 40.08205078 -70.96533203 39.18457031 C-70.62383344 26.44314009 -65.49695636 17.03093716 -56.91796875 7.82421875 C-41.31191216 -6.58137195 -18.85581769 -10.8383834 0 0 Z " fill="#4F54A2" transform="translate(279.48046875,214.42578125)"/>
<path d="M0 0 C4.35054182 2.74659002 8.06573071 5.7366626 11.51953125 9.57421875 C12.34453125 10.46109375 13.16953125 11.34796875 14.01953125 12.26171875 C23.51613984 23.85537024 24.7148294 37.20673494 23.51953125 51.57421875 C20.9791926 64.27591202 12.4706267 73.8123643 2.51953125 81.57421875 C-5.63240758 86.80376441 -13.53724656 89.1478525 -23.23046875 89.07421875 C-24.53709473 89.06672607 -24.53709473 89.06672607 -25.87011719 89.05908203 C-38.61154741 88.71758344 -48.02375034 83.59070636 -57.23046875 75.01171875 C-66.24402663 65.24703105 -71.08190199 55.17699387 -70.98046875 41.82421875 C-70.97547363 40.95313477 -70.97047852 40.08205078 -70.96533203 39.18457031 C-70.62383344 26.44314009 -65.49695636 17.03093716 -56.91796875 7.82421875 C-41.31191216 -6.58137195 -18.85581769 -10.8383834 0 0 Z M-37.48046875 5.57421875 C-38.47046875 5.90421875 -39.46046875 6.23421875 -40.48046875 6.57421875 C-42.06426074 7.56169527 -43.62541239 8.58599195 -45.16796875 9.63671875 C-45.97621094 10.18457031 -46.78445312 10.73242188 -47.6171875 11.296875 C-48.23207031 11.71839844 -48.84695312 12.13992187 -49.48046875 12.57421875 C-47.8607936 16.94211689 -44.56755769 19.45335458 -41.16796875 22.44921875 C-31.07269436 31.38976753 -31.07269436 31.38976753 -28.48046875 36.57421875 C-29.26421875 36.07921875 -30.04796875 35.58421875 -30.85546875 35.07421875 C-33.26599202 33.4088391 -33.26599202 33.4088391 -35.48046875 33.57421875 C-35.7434375 32.98253906 -36.00640625 32.39085937 -36.27734375 31.78125 C-37.53424271 29.47557497 -38.82815499 28.05692025 -40.73046875 26.26171875 C-44.22597062 22.87613832 -47.35824343 19.30565877 -50.48046875 15.57421875 C-55.02541632 17.08920127 -56.28303838 20.48514928 -58.48046875 24.57421875 C-61.34604376 30.45261176 -61.48046875 33.54590658 -61.48046875 40.57421875 C-51.58046875 40.57421875 -41.68046875 40.57421875 -31.48046875 40.57421875 C-31.48046875 41.23421875 -31.48046875 41.89421875 -31.48046875 42.57421875 C-41.38046875 42.57421875 -51.28046875 42.57421875 -61.48046875 42.57421875 C-61.15046875 46.86421875 -60.82046875 51.15421875 -60.48046875 55.57421875 C-59.82046875 55.57421875 -59.16046875 55.57421875 -58.48046875 55.57421875 C-58.41859375 56.25484375 -58.35671875 56.93546875 -58.29296875 57.63671875 C-57.1950802 61.60600812 -54.990229 64.3606143 -52.48046875 67.57421875 C-48.11257061 65.9545436 -45.60133292 62.66130769 -42.60546875 59.26171875 C-33.66491997 49.16644436 -33.66491997 49.16644436 -28.48046875 46.57421875 C-31.22655522 50.95119695 -34.15068338 54.48900991 -37.85546875 58.13671875 C-38.33862549 58.61343018 -38.82178223 59.0901416 -39.31958008 59.58129883 C-42.57431066 62.76607046 -45.89804795 65.76637542 -49.48046875 68.57421875 C-48.32468617 72.0415665 -47.69512903 72.34513409 -44.66796875 74.13671875 C-43.63736328 74.75740234 -43.63736328 74.75740234 -42.5859375 75.390625 C-35.90180377 79.14812504 -32.57804309 79.57421875 -24.48046875 79.57421875 C-24.48046875 69.67421875 -24.48046875 59.77421875 -24.48046875 49.57421875 C-23.82046875 49.57421875 -23.16046875 49.57421875 -22.48046875 49.57421875 C-22.48046875 59.47421875 -22.48046875 69.37421875 -22.48046875 79.57421875 C-16.90336809 79.57421875 -14.3493485 79.47426938 -9.48046875 77.57421875 C-9.81046875 76.58421875 -10.14046875 75.59421875 -10.48046875 74.57421875 C-9.82046875 74.57421875 -9.16046875 74.57421875 -8.48046875 74.57421875 C-8.48046875 75.23421875 -8.48046875 75.89421875 -8.48046875 76.57421875 C-3.97244274 75.31616498 -0.98918755 73.6701471 2.51953125 70.57421875 C0.8998561 66.20632061 -2.39337981 63.69508292 -5.79296875 60.69921875 C-15.88824314 51.75866997 -15.88824314 51.75866997 -18.48046875 46.57421875 C-9.67656045 51.67121829 -2.89691569 59.80694088 3.51953125 67.57421875 C6.98953436 66.41755105 7.36654584 65.71695159 9.20703125 62.69921875 C9.64402344 62.00054687 10.08101563 61.301875 10.53125 60.58203125 C11.74034084 58.49859388 11.74034084 58.49859388 11.51953125 55.57421875 C12.17953125 55.57421875 12.83953125 55.57421875 13.51953125 55.57421875 C13.84953125 51.28421875 14.17953125 46.99421875 14.51953125 42.57421875 C4.61953125 42.57421875 -5.28046875 42.57421875 -15.48046875 42.57421875 C-15.48046875 41.91421875 -15.48046875 41.25421875 -15.48046875 40.57421875 C-5.58046875 40.57421875 4.31953125 40.57421875 14.51953125 40.57421875 C14.75803894 33.3620272 14.75803894 33.3620272 12.51953125 27.57421875 C12.06513672 26.61322266 12.06513672 26.61322266 11.6015625 25.6328125 C9.8596428 22.00881865 8.10933899 18.68198804 5.51953125 15.57421875 C1.09390144 17.21373779 -1.58112755 20.60465035 -4.66796875 24.01171875 C-5.21388672 24.59759766 -5.75980469 25.18347656 -6.32226562 25.78710938 C-9.53769563 29.27201343 -9.53769563 29.27201343 -11.48046875 33.57421875 C-13.91796875 34.69921875 -13.91796875 34.69921875 -16.48046875 35.57421875 C-17.47046875 36.06921875 -17.47046875 36.06921875 -18.48046875 36.57421875 C-13.38346921 27.77031045 -5.24774662 20.99066569 2.51953125 14.57421875 C1.36286355 11.10421564 0.66226409 10.72720416 -2.35546875 8.88671875 C-3.05414063 8.44972656 -3.7528125 8.01273438 -4.47265625 7.5625 C-6.55609362 6.35340916 -6.55609362 6.35340916 -9.48046875 6.57421875 C-9.48046875 5.91421875 -9.48046875 5.25421875 -9.48046875 4.57421875 C-13.77046875 4.24421875 -18.06046875 3.91421875 -22.48046875 3.57421875 C-22.48046875 13.47421875 -22.48046875 23.37421875 -22.48046875 33.57421875 C-23.14046875 33.57421875 -23.80046875 33.57421875 -24.48046875 33.57421875 C-24.48046875 23.67421875 -24.48046875 13.77421875 -24.48046875 3.57421875 C-31.64076101 3.37909893 -31.64076101 3.37909893 -37.48046875 5.57421875 Z " fill="#474D9E" transform="translate(279.48046875,214.42578125)"/>
<path d="M0 0 C-0.79664063 0.78503906 -1.59328125 1.57007813 -2.4140625 2.37890625 C-7.83739894 7.74756507 -13.1619743 13.08685748 -18 19 C-21.49107379 17.83630874 -21.85222763 17.11026462 -23.6875 14.0625 C-24.12449219 13.35222656 -24.56148437 12.64195312 -25.01171875 11.91015625 C-26 10 -26 10 -26 8 C-22.04634027 6.46681219 -18.08639947 4.95056575 -14.125 3.4375 C-12.99707031 2.99986328 -11.86914062 2.56222656 -10.70703125 2.11132812 C-9.63066406 1.70205078 -8.55429688 1.29277344 -7.4453125 0.87109375 C-6.45031738 0.48880615 -5.45532227 0.10651855 -4.43017578 -0.28735352 C-2 -1 -2 -1 0 0 Z " fill="#E9E9EF" transform="translate(247,263)"/>
<path d="M0 0 C4.484542 1.3789035 7.46309903 2.87920503 11 6 C9.36983899 10.3751418 6.07286766 12.96406541 2.6875 16 C2.11837891 16.52078125 1.54925781 17.0415625 0.96289062 17.578125 C-2.26455153 20.51283704 -5.55933193 23.31460053 -9 26 C-6.14674729 17.28172782 -3.06687455 8.64481468 0 0 Z " fill="#E9E9EF" transform="translate(271,221)"/>
<path d="M0 0 C1.53318781 3.95365973 3.04943425 7.91360053 4.5625 11.875 C5.21895508 13.56689453 5.21895508 13.56689453 5.88867188 15.29296875 C6.29794922 16.36933594 6.70722656 17.44570312 7.12890625 18.5546875 C7.51119385 19.54968262 7.89348145 20.54467773 8.28735352 21.56982422 C9 24 9 24 8 26 C7.21496094 25.20335937 6.42992187 24.40671875 5.62109375 23.5859375 C0.25243493 18.16260106 -5.08685748 12.8380257 -11 8 C-9.83630874 4.50892621 -9.11026462 4.14777237 -6.0625 2.3125 C-5.35222656 1.87550781 -4.64195312 1.43851563 -3.91015625 0.98828125 C-2 0 -2 0 0 0 Z " fill="#E9E9EF" transform="translate(241,221)"/>
<path d="M0 0 C4.42562981 1.63951904 7.1006588 5.0304316 10.1875 8.4375 C10.73341797 9.02337891 11.27933594 9.60925781 11.84179688 10.21289062 C15.87024655 14.61073965 15.87024655 14.61073965 17 18 C17.99 18.33 18.98 18.66 20 19 C18 20 18 20 15.56982422 19.28735352 C14.5748291 18.90506592 13.57983398 18.52277832 12.5546875 18.12890625 C11.47832031 17.71962891 10.40195313 17.31035156 9.29296875 16.88867188 C8.16503906 16.45103516 7.03710938 16.01339844 5.875 15.5625 C4.17150391 14.9118457 4.17150391 14.9118457 2.43359375 14.24804688 C-0.380288 13.17215091 -3.19124866 12.08920434 -6 11 C-4.6210965 6.515458 -3.12079497 3.53690097 0 0 Z " fill="#E9EAEF" transform="translate(227,230)"/>
<path d="M0 0 C6.88377963 5.76316434 13.42546859 11.89013472 20 18 C18.83630874 21.49107379 18.11026462 21.85222763 15.0625 23.6875 C14.35222656 24.12449219 13.64195312 24.56148438 12.91015625 25.01171875 C11 26 11 26 9 26 C7.87425059 22.79192913 6.74953564 19.58349652 5.625 16.375 C5.30789063 15.47136719 4.99078125 14.56773437 4.6640625 13.63671875 C3.07523999 9.1019545 1.50134828 4.56470537 0 0 Z " fill="#EBEBF0" transform="translate(262,265)"/>
<path d="M0 0 C8.71827218 2.85325271 17.35518532 5.93312545 26 9 C24.6210965 13.484542 23.12079497 16.46309903 20 20 C15.6248582 18.36983899 13.03593459 15.07286766 10 11.6875 C9.47921875 11.11837891 8.9584375 10.54925781 8.421875 9.96289062 C5.48716296 6.73544847 2.68539947 3.44066807 0 0 Z " fill="#EBEBF0" transform="translate(265,262)"/>
<path d="M0 0 C3.49107379 1.16369126 3.85222763 1.88973538 5.6875 4.9375 C6.34298828 6.00291016 6.34298828 6.00291016 7.01171875 7.08984375 C8 9 8 9 8 11 C4.41787056 12.31580216 0.83409597 13.62706491 -2.75 14.9375 C-4.27367187 15.49727539 -4.27367187 15.49727539 -5.828125 16.06835938 C-7.29765625 16.60493164 -7.29765625 16.60493164 -8.796875 17.15234375 C-9.69760742 17.48226318 -10.59833984 17.81218262 -11.52636719 18.15209961 C-13.67365181 18.88813588 -15.78934429 19.4924515 -18 20 C-17.67 19.34 -17.34 18.68 -17 18 C-16.34 18 -15.68 18 -15 18 C-14.73703125 17.40832031 -14.4740625 16.81664062 -14.203125 16.20703125 C-12.94622604 13.90135622 -11.65231376 12.4827015 -9.75 10.6875 C-6.25449813 7.30191957 -3.12222532 3.73144002 0 0 Z " fill="#EBEBF0" transform="translate(283,230)"/>
<path d="M0 0 C0.33 0.66 0.66 1.32 1 2 C0.15423079 4.40925101 -0.75058464 6.71789324 -1.75 9.0625 C-2.31187874 10.41845086 -2.87178246 11.77522184 -3.4296875 13.1328125 C-3.70135742 13.79313477 -3.97302734 14.45345703 -4.25292969 15.13378906 C-5.68082652 18.70073134 -6.8435521 22.33791499 -8 26 C-12.50802601 24.74194623 -15.4912812 23.09592835 -19 20 C-17.42027458 15.88108402 -14.41784655 13.40223633 -11.1875 10.5625 C-10.13831021 9.62743716 -9.09012375 8.69124724 -8.04296875 7.75390625 C-7.53556152 7.30031738 -7.0281543 6.84672852 -6.50537109 6.37939453 C-4.26210509 4.32385562 -2.13145877 2.17085727 0 0 Z " fill="#EBEBF0" transform="translate(249,265)"/>
<path d="M0 0 C0.57967529 0.26216309 1.15935059 0.52432617 1.7565918 0.79443359 C4.39972904 1.98906294 7.04360627 3.18204587 9.6875 4.375 C10.59951172 4.7875 11.51152344 5.2 12.45117188 5.625 C13.33740234 6.02460938 14.22363281 6.42421875 15.13671875 6.8359375 C15.94842529 7.20251465 16.76013184 7.5690918 17.59643555 7.94677734 C20.04441897 9.01946403 22.51331466 10.02080717 25 11 C25 11.33 25 11.66 25 12 C11.635 12.495 11.635 12.495 -2 13 C-2 4 -2 4 0 0 Z " fill="#ECECF0" transform="translate(220,242)"/>
<path d="M0 0 C-0.33 8.91 -0.66 17.82 -1 27 C-3.86355999 22.70466001 -5.95503129 18.08512211 -8.1875 13.4375 C-8.66380859 12.46619141 -9.14011719 11.49488281 -9.63085938 10.49414062 C-10.07623047 9.56666016 -10.52160156 8.63917969 -10.98046875 7.68359375 C-11.39192139 6.83337646 -11.80337402 5.98315918 -12.22729492 5.10717773 C-12.4822876 4.41180908 -12.73728027 3.71644043 -13 3 C-12 1 -12 1 -10.4375 0.375 C-6.99657145 -0.15437362 -3.48141145 0 0 0 Z " fill="#ECECF0" transform="translate(255,218)"/>
<path d="M0 0 C0.33 0 0.66 0 1 0 C1.33 8.91 1.66 17.82 2 27 C-7 27 -7 27 -11 25 C-10.73783691 24.42032471 -10.47567383 23.84064941 -10.20556641 23.2434082 C-9.01093706 20.60027096 -7.81795413 17.95639373 -6.625 15.3125 C-6.2125 14.40048828 -5.8 13.48847656 -5.375 12.54882812 C-4.97539062 11.66259766 -4.57578125 10.77636719 -4.1640625 9.86328125 C-3.79748535 9.05157471 -3.4309082 8.23986816 -3.05322266 7.40356445 C-1.98053597 4.95558103 -0.97919283 2.48668534 0 0 Z " fill="#ECEDF0" transform="translate(253,267)"/>
<path d="M0 0 C2 1 2 1 2.625 2.5625 C3.15437362 6.00342855 3 9.51858855 3 13 C-5.91 12.67 -14.82 12.34 -24 12 C-19.70466001 9.13644001 -15.08512211 7.04496871 -10.4375 4.8125 C-9.46619141 4.33619141 -8.49488281 3.85988281 -7.49414062 3.36914062 C-6.10291992 2.70108398 -6.10291992 2.70108398 -4.68359375 2.01953125 C-3.83337646 1.60807861 -2.98315918 1.19662598 -2.10717773 0.77270508 C-1.41180908 0.5177124 -0.71644043 0.26271973 0 0 Z " fill="#ECEDF0" transform="translate(291,242)"/>
<path d="M0 0 C1.73765784 2.60648676 3.0490791 5.06535964 4.3828125 7.88671875 C4.82753906 8.82451172 5.27226562 9.76230469 5.73046875 10.72851562 C6.19066406 11.70498047 6.65085937 12.68144531 7.125 13.6875 C7.59292969 14.67556641 8.06085938 15.66363281 8.54296875 16.68164062 C9.69741308 19.12010977 10.84966953 21.55958816 12 24 C9.75337355 26.24662645 9.06068417 26.50367284 6 27 C3.69 27 1.38 27 -1 27 C-0.67 18.09 -0.34 9.18 0 0 Z " fill="#EDEEF1" transform="translate(258,267)"/>
<path d="M0 0 C13.365 0.495 13.365 0.495 27 1 C23.03752725 3.6416485 18.84511235 5.61815706 14.5625 7.6875 C13.27375977 8.33041992 13.27375977 8.33041992 11.95898438 8.98632812 C11.12818359 9.38658203 10.29738281 9.78683594 9.44140625 10.19921875 C8.68545166 10.56877686 7.92949707 10.93833496 7.15063477 11.3190918 C4.67013092 12.10443919 3.41878713 11.86020367 1 11 C-0.26086514 7.05979642 0 4.52419701 0 0 Z " fill="#EDEEF1" transform="translate(218,257)"/>
<path d="M0 0 C7.875 0 7.875 0 12 2 C11.35392856 6.98965945 9.22172045 11.14605067 7.0625 15.625 C6.52206055 16.7696875 6.52206055 16.7696875 5.97070312 17.9375 C4.45165531 21.12666116 2.96569761 24.05145359 1 27 C0.67 18.09 0.34 9.18 0 0 Z " fill="#EDEEF1" transform="translate(257,218)"/>
<path d="M0 0 C0.17835515 4.54805635 -0.00214565 7.8794254 -2 12 C-5.56669804 11.39768601 -8.57808629 10.43842499 -11.86328125 8.93359375 C-12.74951172 8.53076172 -13.63574219 8.12792969 -14.54882812 7.71289062 C-15.46083984 7.29201172 -16.37285156 6.87113281 -17.3125 6.4375 C-18.24384766 6.01275391 -19.17519531 5.58800781 -20.13476562 5.15039062 C-22.4253672 4.10493657 -24.71363659 3.05468244 -27 2 C-27 1.67 -27 1.34 -27 1 C-23.81265063 0.83036895 -20.62510059 0.66483749 -17.4375 0.5 C-16.54224609 0.45230469 -15.64699219 0.40460938 -14.72460938 0.35546875 C-9.80829229 0.10334993 -4.9226912 -0.0540213 0 0 Z " fill="#EEEEF1" transform="translate(294,257)"/>
<path d="M0 0 C2.375 1.625 2.375 1.625 4 4 C4.61195145 7.6717087 4.48706506 9.28813568 2.375 12.375 C-0.71186432 14.48706506 -2.3282913 14.61195145 -6 14 C-8.375 12.375 -8.375 12.375 -10 10 C-10.61195145 6.3282913 -10.48706506 4.71186432 -8.375 1.625 C-5.28813568 -0.48706506 -3.6717087 -0.61195145 0 0 Z " fill="#E3E4EC" transform="translate(259,249)"/>
<path d="M0 0 C2.625 0.375 2.625 0.375 5 1 C5.625 3.375 5.625 3.375 6 6 C5.34 6.66 4.68 7.32 4 8 C1.375 7.625 1.375 7.625 -1 7 C-1.625 4.625 -1.625 4.625 -2 2 C-1.34 1.34 -0.68 0.68 0 0 Z " fill="#41479B" transform="translate(254,252)"/>
<path d="M0 0 C2.74770527 0.28923213 4.55993297 0.68133077 6.8125 2.3125 C8 4 8 4 8 8 C7.34 8 6.68 8 6 8 C4.65080468 6.34614767 3.31866272 4.678298 2 3 C1.01 2.34 0.02 1.68 -1 1 C-0.67 0.67 -0.34 0.34 0 0 Z " fill="#EAEBEF" transform="translate(255,249)"/>
<path d="M0 0 C0.66 0.33 1.32 0.66 2 1 C2 1.66 2 2.32 2 3 C-1.78187881 4.83691257 -3.94568308 5.15837626 -8 4 C-7.67 3.34 -7.34 2.68 -7 2 C-5.34385343 1.61781233 -3.67542976 1.28604898 -2 1 C-1.34 0.67 -0.68 0.34 0 0 Z " fill="#555AA5" transform="translate(227,266)"/>
</svg>
