<svg width="38" height="38" viewBox="0 0 38 38" fill="none" xmlns="http://www.w3.org/2000/svg">
<path d="M38 19.0001C38 8.50669 29.4934 0.000106812 19 0.000106812C8.50658 0.000106812 0 8.50669 0 19.0001C0 28.4836 6.94803 36.3439 16.0312 37.7693V24.4923H11.207V19.0001H16.0312V14.8142C16.0312 10.0523 18.8678 7.42198 23.2078 7.42198C25.2866 7.42198 27.4609 7.79308 27.4609 7.79308V12.4689H25.0651C22.7048 12.4689 21.9688 13.9335 21.9688 15.436V19.0001H27.2383L26.3959 24.4923H21.9688V37.7693C31.052 36.3439 38 28.4836 38 19.0001Z" fill="#1877F2"/>
<path d="M26.3959 24.4922L27.2383 19H21.9688V15.4359C21.9688 13.9333 22.7048 12.4688 25.0651 12.4688H27.4609V7.79297C27.4609 7.79297 25.2866 7.42188 23.2078 7.42188C18.8678 7.42188 16.0313 10.0522 16.0313 14.8141V19H11.207V24.4922H16.0313V37.7692C16.9986 37.921 17.99 38 19 38C20.01 38 21.0014 37.921 21.9688 37.7692V24.4922H26.3959Z" fill="white"/>
</svg>
