<svg width="360" height="326" viewBox="0 0 360 326" fill="none" xmlns="http://www.w3.org/2000/svg">
<path d="M360 225.475H0V274.724H360V225.475Z" fill="#F2623B"/>
<path d="M8.388 222.64H0V274.724H8.388V222.64Z" fill="#FFAF78"/>
<path d="M25.1282 222.64H16.7402V274.724H25.1282V222.64Z" fill="#FFAF78"/>
<path d="M41.8753 222.64H33.4873V274.724H41.8753V222.64Z" fill="#FFAF78"/>
<path d="M58.6155 222.64H50.2275V274.724H58.6155V222.64Z" fill="#FFAF78"/>
<path d="M75.3626 222.64H66.9746V274.724H75.3626V222.64Z" fill="#FFAF78"/>
<path d="M92.1024 222.64H83.7144V274.724H92.1024V222.64Z" fill="#FFAF78"/>
<path d="M108.849 222.64H100.461V274.724H108.849V222.64Z" fill="#FFAF78"/>
<path d="M125.59 222.64H117.202V274.724H125.59V222.64Z" fill="#FFAF78"/>
<path d="M142.337 222.64H133.949V274.724H142.337V222.64Z" fill="#FFAF78"/>
<path d="M159.077 222.64H150.689V274.724H159.077V222.64Z" fill="#FFAF78"/>
<path d="M175.824 222.64H167.436V274.724H175.824V222.64Z" fill="#FFAF78"/>
<path d="M192.564 222.64H184.176V274.724H192.564V222.64Z" fill="#FFAF78"/>
<path d="M209.311 222.64H200.923V274.724H209.311V222.64Z" fill="#FFAF78"/>
<path d="M226.051 222.64H217.663V274.724H226.051V222.64Z" fill="#FFAF78"/>
<path d="M242.799 222.64H234.411V274.724H242.799V222.64Z" fill="#FFAF78"/>
<path d="M259.538 222.64H251.15V274.724H259.538V222.64Z" fill="#FFAF78"/>
<path d="M276.286 222.64H267.898V274.724H276.286V222.64Z" fill="#FFAF78"/>
<path d="M293.026 222.64H284.638V274.724H293.026V222.64Z" fill="#FFAF78"/>
<path d="M309.773 222.64H301.385V274.724H309.773V222.64Z" fill="#FFAF78"/>
<path d="M326.513 222.64H318.125V274.724H326.513V222.64Z" fill="#FFAF78"/>
<path d="M343.26 222.64H334.872V274.724H343.26V222.64Z" fill="#FFAF78"/>
<path d="M360 222.64H351.612V274.724H360V222.64Z" fill="#FFAF78"/>
<path d="M360 222.64H0V228.119H360V222.64Z" fill="#AA311D"/>
<path d="M360 271.704H0V326H360V271.704Z" fill="#FFD6C0"/>
<path d="M179.186 301.722C260.362 301.722 326.167 295.705 326.167 288.283C326.167 280.861 260.362 274.844 179.186 274.844C98.0111 274.844 32.2056 280.861 32.2056 288.283C32.2056 295.705 98.0111 301.722 179.186 301.722Z" fill="#FFBA8E"/>
<path d="M73.9657 59.7175H21.2617V145.825H73.9657V59.7175Z" fill="#CC6352"/>
<path d="M70.8911 142.798V62.7441H24.3287L24.3287 142.798H70.8911Z" fill="#872C17"/>
<path d="M69.8691 141.792V63.7507H25.3587L25.3587 141.792H69.8691Z" fill="#CC6352"/>
<path d="M48.9743 105.047C53.7407 107.839 59.4791 108.477 64.7423 106.84V82.5557L59.1767 85.0365C57.0815 85.9722 55.0727 87.0709 53.1719 88.3396C46.4543 92.791 38.5631 95.1868 30.4775 95.2506V101.977L39.8807 102.374C43.0919 102.509 46.2095 103.43 48.9743 105.047Z" fill="#2398F9"/>
<path d="M59.1841 85.0364L64.7497 82.5556V68.7903H30.4849V95.2505C38.5705 95.1797 46.4689 92.7838 53.1793 88.3395C55.0873 87.0778 57.0961 85.9721 59.1841 85.0364Z" fill="#116696"/>
<path d="M51.4441 127.232C46.4041 124.333 40.2193 124.135 34.9993 126.708L30.4849 128.934V136.745H64.7497V131.769L55.0153 128.778C53.7697 128.395 52.5745 127.877 51.4441 127.225V127.232Z" fill="#2398F9"/>
<path d="M48.9743 105.046C46.2167 103.43 43.0919 102.516 39.8807 102.374L30.4775 101.977V128.934L34.9919 126.708C40.2119 124.135 46.3967 124.333 51.4367 127.233C52.5599 127.878 53.7623 128.402 55.0079 128.785L64.7423 131.776V106.847C59.4719 108.484 53.7407 107.846 48.9743 105.054V105.046Z" fill="#33AEF2"/>
<path d="M57.852 178.572H54.1152C55.6488 181.549 57.1032 186.008 58.3128 191.466C60.9336 203.225 62.3736 218.819 62.3736 235.391C62.3736 239.226 62.2944 243.004 62.1432 246.704H68.76C68.9112 243.004 68.9832 239.226 68.9832 235.391C68.9832 218.16 67.4568 201.921 64.6776 189.672C64.0368 186.83 63.3312 184.257 62.5824 181.975C61.92 179.947 60.0048 178.572 57.8448 178.572H57.852Z" fill="#76757A"/>
<path d="M106.863 241.076H62.561L64.5986 233.045C65.0954 231.089 66.881 229.721 68.9258 229.721H98.1866C103.385 229.721 107.914 233.201 109.174 238.163C109.548 239.644 108.411 241.076 106.863 241.076Z" fill="#69696B"/>
<path d="M108.173 290.764H101.564V248.157C101.564 247.356 100.901 246.704 100.088 246.704H62.3452V240.197H106.697C107.511 240.197 108.173 240.849 108.173 241.65V290.764Z" fill="#1B1718"/>
<path d="M61.5603 281.117C64.3323 268.869 65.8659 252.63 65.8659 235.398C65.8659 218.167 64.3395 201.928 61.5603 189.68C60.1707 183.548 58.5291 178.693 56.6715 175.227C54.2739 170.754 51.4011 168.486 48.1323 168.486V174.993C48.3555 175.014 49.4859 175.666 50.9763 178.544C52.5171 181.521 53.9715 185.987 55.1955 191.466C57.8163 203.225 59.2563 218.819 59.2563 235.391C59.2563 251.964 57.8163 267.565 55.1955 279.317C54.1659 283.953 52.9635 287.865 51.6819 290.764H58.7883C59.7963 288.021 60.7251 284.796 61.5603 281.11V281.117Z" fill="#1B1718"/>
<path d="M54.0471 175.127C54.7441 172.22 52.9153 169.308 49.9624 168.621C47.0095 167.935 44.0507 169.736 43.3537 172.643C42.6568 175.55 44.4856 178.463 47.4385 179.149C50.3914 179.835 53.3502 178.035 54.0471 175.127Z" fill="#1B1718"/>
<path d="M300.521 178.573H304.258C302.724 181.55 301.27 186.008 300.06 191.466C297.439 203.225 295.999 218.819 295.999 235.392C295.999 239.226 296.078 243.004 296.23 246.704H289.613C289.462 243.004 289.39 239.226 289.39 235.392C289.39 218.16 290.916 201.921 293.695 189.673C294.336 186.83 295.042 184.257 295.79 181.975C296.453 179.948 298.368 178.573 300.528 178.573H300.521Z" fill="#76757A"/>
<path d="M251.51 241.076H295.812L293.774 233.045C293.278 231.089 291.492 229.721 289.447 229.721H260.186C254.988 229.721 250.459 233.201 249.199 238.163C248.825 239.644 249.962 241.076 251.51 241.076Z" fill="#69696B"/>
<path d="M250.207 290.764H256.817V248.157C256.817 247.356 257.479 246.704 258.293 246.704H296.035V240.197H251.683C250.869 240.197 250.207 240.849 250.207 241.65V290.764Z" fill="#1B1718"/>
<path d="M296.813 281.117C294.041 268.869 292.507 252.63 292.507 235.398C292.507 218.167 294.034 201.928 296.813 189.68C298.203 183.548 299.844 178.693 301.702 175.227C304.099 170.754 306.972 168.486 310.241 168.486V174.993C310.018 175.014 308.887 175.666 307.397 178.544C305.856 181.521 304.402 185.987 303.178 191.466C300.557 203.225 299.117 218.819 299.117 235.391C299.117 251.964 300.557 267.565 303.178 279.317C304.207 283.953 305.41 287.865 306.691 290.764H299.585C298.577 288.021 297.648 284.796 296.813 281.11V281.117Z" fill="#1B1718"/>
<path d="M310.936 179.148C313.89 178.464 315.721 175.553 315.026 172.645C314.331 169.738 311.373 167.935 308.42 168.619C305.466 169.303 303.636 172.215 304.33 175.122C305.025 178.03 307.983 179.832 310.936 179.148Z" fill="#1B1718"/>
<path d="M270.821 1.20435H87.5591V181.62H270.821V1.20435Z" fill="#CC6352"/>
<path d="M264.809 175.709V7.12305L93.5638 7.12305V175.709H264.809Z" fill="#141F28"/>
<path d="M181.591 3.24585H176.781V181.62H181.591V3.24585Z" fill="#CC6352"/>
<path d="M181.591 3.24585H179.64V181.62H181.591V3.24585Z" fill="#A33328"/>
<path d="M268.2 93.7976H92.0371V98.5325H268.2V93.7976Z" fill="#CC6352"/>
<path d="M268.2 93.7976H92.0371V95.4492H268.2V93.7976Z" fill="#A33328"/>
<g style="mix-blend-mode:overlay">
<path d="M142.33 98.5325L93.564 146.541V122.285L117.691 98.5325H142.33Z" fill="url(#paint0_linear_62_2638)"/>
<path d="M176.782 40.3667V64.6225L147.132 93.8046H122.494L176.782 40.3667Z" fill="url(#paint1_linear_62_2638)"/>
<path d="M235.188 7.12305L181.591 59.8876V35.6318L210.55 7.12305H235.188Z" fill="url(#paint2_linear_62_2638)"/>
<path d="M111.658 175.709L176.782 111.596V151.077L151.762 175.709H111.658Z" fill="url(#paint3_linear_62_2638)"/>
<path d="M190.051 98.5325H230.155L181.591 146.342V106.861L190.051 98.5325Z" fill="url(#paint4_linear_62_2638)"/>
<path d="M264.809 35.242V64.417L234.958 93.8047H194.854L259.574 30.0889L264.809 35.242Z" fill="url(#paint5_linear_62_2638)"/>
<path d="M258.523 98.5325H264.809V117.933L206.122 175.709H181.591V174.27L258.523 98.5325Z" fill="url(#paint6_linear_62_2638)"/>
</g>
<path d="M281.628 1.20435H76.7446V8.15078H281.628V1.20435Z" fill="#AA311D"/>
<path d="M281.628 1.20435H76.7446V8.15078H281.628V1.20435Z" fill="#AA311D"/>
<path d="M281.628 3.95459H76.7446V8.15081H281.628V3.95459Z" fill="#8E1909"/>
<path d="M76.7447 10.3551C79.9299 10.3551 82.5119 7.81308 82.5119 4.67741C82.5119 1.54173 79.9299 -1.00024 76.7447 -1.00024C73.5596 -1.00024 70.9775 1.54173 70.9775 4.67741C70.9775 7.81308 73.5596 10.3551 76.7447 10.3551Z" fill="#AA311D"/>
<path d="M281.628 10.3551C284.813 10.3551 287.395 7.81308 287.395 4.67741C287.395 1.54173 284.813 -1.00024 281.628 -1.00024C278.443 -1.00024 275.861 1.54173 275.861 4.67741C275.861 7.81308 278.443 10.3551 281.628 10.3551Z" fill="#AA311D"/>
<path d="M281.628 -1.00024C281.016 -1.00024 280.426 -0.901001 279.864 -0.730884C282.132 -0.70962 283.968 1.10496 283.968 3.34483C283.968 5.5847 282.11 7.42764 279.821 7.42764C277.956 7.42764 276.379 6.21555 275.861 4.54274C275.861 4.58527 275.861 4.6278 275.861 4.67033C275.861 7.8104 278.446 10.348 281.628 10.348C284.81 10.348 287.395 7.80331 287.395 4.67033C287.395 1.53734 284.81 -1.00732 281.628 -1.00732V-1.00024Z" fill="#8E1909"/>
<path d="M76.7589 -1.00024C76.1469 -1.00024 75.5565 -0.901001 74.9949 -0.730884C77.2629 -0.70962 79.0989 1.10496 79.0989 3.34483C79.0989 5.5847 77.2413 7.42764 74.9517 7.42764C73.0869 7.42764 71.5101 6.21555 70.9917 4.54274C70.9917 4.58527 70.9917 4.6278 70.9917 4.67033C70.9917 7.8104 73.5765 10.348 76.7589 10.348C79.9413 10.348 82.5261 7.80331 82.5261 4.67033C82.5261 1.53734 79.9413 -1.00732 76.7589 -1.00732V-1.00024Z" fill="#8E1909"/>
<path d="M183.002 1.20435H86.9902V77.2537C87.4294 77.2537 87.8686 77.2608 88.3078 77.2608C140.609 77.2608 183.009 43.209 183.009 1.20435H183.002Z" fill="#C62030"/>
<path d="M132.134 175.517C132.134 92.9895 111.924 26.084 86.9902 26.084V204.14L130.154 219.45C131.443 205.557 132.134 190.807 132.134 175.517Z" fill="#C62030"/>
<path d="M119.095 119.974C119.923 136.951 119.75 155.359 118.418 174.539C117.475 188.156 116.013 201.304 114.112 213.765L120.636 216.076C121.73 203.176 122.32 189.573 122.32 175.518C122.32 155.89 121.175 137.149 119.102 119.974H119.095Z" fill="#AA0E25"/>
<path d="M100.829 130.153C101.657 147.129 101.484 165.537 100.152 184.718C99.6049 192.664 98.8705 200.454 97.9849 208.045L103.457 209.987C103.846 202.084 104.047 193.968 104.047 185.696C104.047 166.069 102.902 147.328 100.829 130.153Z" fill="#AA0E25"/>
<path d="M159.933 1.20435H151.733C153.389 21.1505 143.251 40.31 125.539 54.6069C146.549 41.9048 159.941 22.6958 159.941 1.20435H159.933Z" fill="#AA0E25"/>
<path d="M138.254 1.20435H130.053C131.709 23.8866 121.572 45.6757 103.86 61.9361C124.869 47.4903 138.261 25.6516 138.261 1.20435H138.254Z" fill="#AA0E25"/>
<path d="M175.37 1.20435H271.382V77.2537C270.943 77.2537 270.504 77.2608 270.064 77.2608C217.764 77.2608 175.363 43.209 175.363 1.20435H175.37Z" fill="#C62030"/>
<path d="M226.238 175.517C226.238 92.9895 246.448 26.084 271.382 26.084V204.14L228.218 219.45C226.929 205.557 226.238 190.807 226.238 175.517Z" fill="#C62030"/>
<path d="M239.277 119.974C238.449 136.951 238.622 155.359 239.954 174.539C240.897 188.156 242.359 201.304 244.26 213.765L237.737 216.076C236.642 203.176 236.052 189.573 236.052 175.518C236.052 155.89 237.197 137.149 239.27 119.974H239.277Z" fill="#AA0E25"/>
<path d="M257.544 130.153C256.716 147.129 256.888 165.537 258.22 184.718C258.768 192.664 259.502 200.454 260.388 208.045L254.916 209.987C254.527 202.084 254.325 193.968 254.325 185.696C254.325 166.069 255.47 147.328 257.544 130.153Z" fill="#AA0E25"/>
<path d="M198.439 1.20435H206.64C204.984 21.1505 215.121 40.31 232.833 54.6069C211.824 41.9048 198.432 22.6958 198.432 1.20435H198.439Z" fill="#AA0E25"/>
<path d="M220.118 1.20435H228.319C226.663 23.8866 236.8 45.6757 254.512 61.9361C233.503 47.4903 220.111 25.6516 220.111 1.20435H220.118Z" fill="#AA0E25"/>
<path d="M275.331 64.4418L235.285 77.8093C234.344 78.1234 233.321 77.6265 233.002 76.7001L231.786 73.1691C231.467 72.2428 231.972 71.236 232.913 70.9219L272.959 57.5545C273.9 57.2404 274.922 57.7373 275.242 58.6636L276.458 62.1946C276.777 63.121 276.272 64.1277 275.331 64.4418Z" fill="#770A1F"/>
<path d="M84.8092 57.5644L124.855 70.9318C125.796 71.2459 126.301 72.2527 125.982 73.1791L124.766 76.71C124.447 77.6364 123.424 78.1333 122.483 77.8192L82.4371 64.4517C81.4961 64.1376 80.9913 63.1309 81.3104 62.2045L82.5265 58.6736C82.8455 57.7472 83.8682 57.2503 84.8092 57.5644Z" fill="#770A1F"/>
<path d="M121.133 77.7498L86.9902 76.0416V65.9763L121.017 77.3316C121.053 77.4734 121.089 77.6081 121.133 77.7498Z" fill="#AA0E25"/>
<path d="M237.233 77.6292L271.375 75.921V65.8557L237.348 77.211C237.312 77.3528 237.276 77.4875 237.233 77.6292Z" fill="#AA0E25"/>
<path d="M179.323 152.126H178.56V173.568H179.323V152.126Z" fill="#22A822"/>
<path d="M181.368 155.635C183.009 156.188 184.745 155.479 184.745 155.479C184.745 155.479 183.816 153.87 182.174 153.31C180.533 152.757 178.797 153.466 178.797 153.466C178.797 153.466 179.726 155.075 181.368 155.635Z" fill="#22A822"/>
<path d="M176.522 155.635C174.881 156.188 173.146 155.479 173.146 155.479C173.146 155.479 174.074 153.87 175.716 153.31C177.358 152.757 179.093 153.466 179.093 153.466C179.093 153.466 178.164 155.075 176.522 155.635Z" fill="#22A822"/>
<path d="M181.98 144.769C183.038 146.519 182.448 148.781 180.669 149.815C178.891 150.857 176.594 150.276 175.543 148.525C174.492 146.775 178.977 139.786 178.977 139.786C178.977 139.786 180.929 143.018 181.98 144.769Z" fill="#C62020"/>
<path d="M175.867 146.796C175.867 148.83 177.545 150.482 179.611 150.482C181.678 150.482 183.355 148.83 183.355 146.796C183.355 144.761 175.867 141.005 175.867 141.005V146.796Z" fill="#A50F0F"/>
<path d="M182.023 146.796C182.023 148.83 180.346 150.482 178.279 150.482C176.213 150.482 174.535 148.83 174.535 146.796C174.535 144.761 182.023 141.005 182.023 141.005V146.796Z" fill="#B51212"/>
<path d="M173.808 149.418C173.808 152.211 176.104 154.472 178.941 154.472C181.778 154.472 184.075 152.211 184.075 149.418C184.075 146.626 173.808 141.472 173.808 141.472V149.418Z" fill="#C62020"/>
<path d="M184.082 149.418C184.082 152.211 181.785 154.472 178.949 154.472C176.112 154.472 173.815 152.211 173.815 149.418C173.815 146.626 184.082 141.472 184.082 141.472V149.418Z" fill="#A50F0F"/>
<path d="M180.475 161.036C179.049 161.943 178.74 163.956 178.74 163.956C178.74 163.956 180.734 164.502 182.16 163.595C183.585 162.688 183.895 160.674 183.895 160.674C183.895 160.674 181.901 160.129 180.475 161.036Z" fill="#22A822"/>
<path d="M175.86 175.397L174.946 166.246H182.945L182.031 175.397C184.745 177.672 188.266 181.443 188.266 185.71C188.266 188.439 186.826 190.962 185.083 193.018C184.356 193.876 183.269 194.365 182.131 194.365H175.767C174.607 194.365 173.513 193.847 172.771 192.975C171.043 190.927 169.625 188.418 169.625 185.71C169.625 181.443 173.146 177.665 175.86 175.397Z" fill="#F7F7F7"/>
<path d="M179.251 175.397L180.166 166.246H182.945L182.031 175.397C184.745 177.672 188.266 181.443 188.266 185.71C188.266 188.439 186.826 190.962 185.083 193.018C184.356 193.876 183.269 194.365 182.131 194.365H179.352C180.49 194.365 181.577 193.876 182.304 193.018C184.047 190.955 185.487 188.432 185.487 185.71C185.487 181.443 181.966 177.665 179.251 175.397Z" fill="#D2DBDB"/>
<path d="M147.427 192.012V182.074C147.427 181.719 147.074 181.393 146.541 181.259C144.446 180.727 142.999 179.281 143.092 177.622L143.56 169.166H153.057L153.525 177.622C153.619 179.274 152.172 180.727 150.076 181.259C149.544 181.393 149.191 181.712 149.191 182.074V192.012C149.191 192.437 149.594 192.827 150.22 193.011L155.044 194.379H141.573L146.397 193.011C147.024 192.834 147.427 192.444 147.427 192.012Z" fill="#F7F7F7"/>
<path d="M144.216 172.54L143.949 177.332C143.906 178.055 144.223 178.728 144.777 179.274C145.396 179.877 146.275 180.16 147.146 180.16H149.472C150.343 180.16 151.221 179.877 151.84 179.274C152.395 178.728 152.712 178.055 152.668 177.332L152.402 172.54H144.216Z" fill="#C62030"/>
<path d="M149.191 181.259C151.286 180.727 152.734 179.281 152.64 177.622L152.172 169.166H153.05L153.518 177.622C153.612 179.274 152.165 180.727 150.07 181.259C149.537 181.393 149.184 181.712 149.184 182.074V192.012C149.184 192.437 149.587 192.827 150.214 193.011L155.038 194.379H154.159L149.335 193.011C148.709 192.834 148.306 192.444 148.306 192.012V182.074C148.306 181.719 148.658 181.393 149.191 181.259Z" fill="#D2DBDB"/>
<path d="M203.947 192.012V182.074C203.947 181.719 203.595 181.393 203.062 181.259C200.967 180.727 199.519 179.281 199.613 177.622L200.081 169.166H209.578L210.046 177.622C210.139 179.274 208.692 180.727 206.597 181.259C206.064 181.393 205.711 181.712 205.711 182.074V192.012C205.711 192.437 206.115 192.827 206.741 193.011L211.565 194.379H198.094L202.918 193.011C203.544 192.834 203.947 192.444 203.947 192.012Z" fill="#F7F7F7"/>
<path d="M200.614 174.752L200.47 177.332C200.427 178.055 200.743 178.728 201.298 179.274C201.917 179.876 202.795 180.16 203.667 180.16H205.992C206.863 180.16 207.742 179.876 208.361 179.274C208.915 178.728 209.232 178.055 209.189 177.332L209.045 174.752H200.607H200.614Z" fill="#C62030"/>
<path d="M205.711 181.259C207.806 180.727 209.254 179.281 209.16 177.622L208.692 169.166H209.57L210.038 177.622C210.132 179.274 208.685 180.727 206.59 181.259C206.057 181.393 205.704 181.712 205.704 182.074V192.012C205.704 192.437 206.107 192.827 206.734 193.011L211.558 194.379H210.679L205.855 193.011C205.229 192.834 204.826 192.444 204.826 192.012V182.074C204.826 181.719 205.178 181.393 205.711 181.259Z" fill="#D2DBDB"/>
<path d="M138.154 235.391C138.154 251.964 136.714 267.565 134.093 279.317C133.063 283.953 131.861 287.865 130.579 290.764H137.685C138.693 288.021 139.622 284.796 140.458 281.11C143.23 268.862 144.763 252.623 144.763 235.391C144.763 227.502 144.439 219.819 143.827 212.638H137.196C137.822 219.797 138.154 227.481 138.154 235.391Z" fill="#1B1718"/>
<path d="M220.219 235.391C220.219 227.481 220.55 219.79 221.177 212.638H214.545C213.933 219.826 213.609 227.502 213.609 235.391C213.609 252.623 215.136 268.862 217.915 281.11C218.75 284.796 219.679 288.021 220.687 290.764H227.793C226.519 287.865 225.309 283.953 224.28 279.317C221.659 267.558 220.219 251.964 220.219 235.391Z" fill="#1B1718"/>
<path d="M156.463 251.113C167.825 251.113 167.825 257.032 179.186 257.032C190.548 257.032 190.548 251.113 201.91 251.113C213.271 251.113 213.271 257.032 224.633 257.032C232.07 257.032 234.641 254.494 238.716 252.743C239.278 252.502 239.609 251.921 239.522 251.318L231.624 196.385C231.458 195.222 230.45 194.365 229.262 194.365H129.103C127.915 194.365 126.907 195.23 126.742 196.385L118.843 251.318C118.757 251.914 119.088 252.495 119.65 252.743C123.725 254.494 126.295 257.032 133.733 257.032C145.094 257.032 145.094 251.113 156.456 251.113H156.463Z" fill="#EFEFEF"/>
<path d="M145.757 253.735C148.392 252.374 151.222 251.12 156.463 251.12C161.186 251.12 163.944 252.14 166.378 253.338L156.125 208.576L145.757 253.742V253.735Z" fill="#DDDCDB"/>
<path d="M192.002 253.332C194.429 252.134 197.194 251.113 201.917 251.113C207.166 251.113 209.988 252.375 212.623 253.729L202.255 208.562L192.002 253.324V253.332Z" fill="#DDDCDB"/>
<path d="M287.316 60.7026V103.487H343.318V60.7026H287.316ZM338.962 99.1987H291.665V64.9839H338.962V99.1987Z" fill="#AA311D"/>
<path d="M338.969 64.991H291.672V99.2057H338.969V64.991Z" fill="#FFAF78"/>
<path d="M338.969 75.1059L326.131 87.7442L309.657 71.5334L291.672 89.2398V99.1987H338.969V75.1059Z" fill="#F2623B"/>
<path d="M287.316 110.086V152.871H343.318V110.086H287.316ZM338.962 148.582H291.665V114.375H338.962V148.582Z" fill="#872C17"/>
<path d="M338.969 114.367H291.672V148.575H338.969V114.367Z" fill="#C62030"/>
<path d="M325.058 123.568H307.778V126.049H325.058V123.568Z" fill="#EFEFEF"/>
<path d="M325.058 130.117H307.778V132.598H325.058V130.117Z" fill="#EFEFEF"/>
<path d="M329.724 137.567H303.105V140.048H329.724V137.567Z" fill="#EFEFEF"/>
<defs>
<linearGradient id="paint0_linear_62_2638" x1="93.1176" y1="134.852" x2="238.323" y2="-12.6431" gradientUnits="userSpaceOnUse">
<stop stop-color="white"/>
<stop offset="0.14" stop-color="#FDFDFD" stop-opacity="0.88"/>
<stop offset="0.45" stop-color="#F8F8F8" stop-opacity="0.58"/>
<stop offset="0.91" stop-color="#F0F0F0" stop-opacity="0.1"/>
<stop offset="1" stop-color="#EFEFEF" stop-opacity="0"/>
</linearGradient>
<linearGradient id="paint1_linear_62_2638" x1="93.1177" y1="134.852" x2="238.323" y2="-12.6431" gradientUnits="userSpaceOnUse">
<stop stop-color="white"/>
<stop offset="0.14" stop-color="#FDFDFD" stop-opacity="0.88"/>
<stop offset="0.45" stop-color="#F8F8F8" stop-opacity="0.58"/>
<stop offset="0.91" stop-color="#F0F0F0" stop-opacity="0.1"/>
<stop offset="1" stop-color="#EFEFEF" stop-opacity="0"/>
</linearGradient>
<linearGradient id="paint2_linear_62_2638" x1="93.1249" y1="134.852" x2="238.33" y2="-12.6431" gradientUnits="userSpaceOnUse">
<stop stop-color="white"/>
<stop offset="0.14" stop-color="#FDFDFD" stop-opacity="0.88"/>
<stop offset="0.45" stop-color="#F8F8F8" stop-opacity="0.58"/>
<stop offset="0.91" stop-color="#F0F0F0" stop-opacity="0.1"/>
<stop offset="1" stop-color="#EFEFEF" stop-opacity="0"/>
</linearGradient>
<linearGradient id="paint3_linear_62_2638" x1="133.164" y1="174.277" x2="278.369" y2="26.7816" gradientUnits="userSpaceOnUse">
<stop stop-color="white"/>
<stop offset="0.14" stop-color="#FDFDFD" stop-opacity="0.88"/>
<stop offset="0.45" stop-color="#F8F8F8" stop-opacity="0.58"/>
<stop offset="0.91" stop-color="#F0F0F0" stop-opacity="0.1"/>
<stop offset="1" stop-color="#EFEFEF" stop-opacity="0"/>
</linearGradient>
<linearGradient id="paint4_linear_62_2638" x1="133.164" y1="174.277" x2="278.369" y2="26.7815" gradientUnits="userSpaceOnUse">
<stop stop-color="white"/>
<stop offset="0.14" stop-color="#FDFDFD" stop-opacity="0.88"/>
<stop offset="0.45" stop-color="#F8F8F8" stop-opacity="0.58"/>
<stop offset="0.91" stop-color="#F0F0F0" stop-opacity="0.1"/>
<stop offset="1" stop-color="#EFEFEF" stop-opacity="0"/>
</linearGradient>
<linearGradient id="paint5_linear_62_2638" x1="133.164" y1="174.277" x2="278.369" y2="26.7815" gradientUnits="userSpaceOnUse">
<stop stop-color="white"/>
<stop offset="0.14" stop-color="#FDFDFD" stop-opacity="0.88"/>
<stop offset="0.45" stop-color="#F8F8F8" stop-opacity="0.58"/>
<stop offset="0.91" stop-color="#F0F0F0" stop-opacity="0.1"/>
<stop offset="1" stop-color="#EFEFEF" stop-opacity="0"/>
</linearGradient>
<linearGradient id="paint6_linear_62_2638" x1="163.872" y1="204.508" x2="309.077" y2="57.0126" gradientUnits="userSpaceOnUse">
<stop stop-color="white"/>
<stop offset="0.14" stop-color="#FDFDFD" stop-opacity="0.88"/>
<stop offset="0.45" stop-color="#F8F8F8" stop-opacity="0.58"/>
<stop offset="0.91" stop-color="#F0F0F0" stop-opacity="0.1"/>
<stop offset="1" stop-color="#EFEFEF" stop-opacity="0"/>
</linearGradient>
</defs>
</svg>
